<?xml version="1.0" encoding="UTF-8"?> <svg xmlns="http://www.w3.org/2000/svg" id="logo-dark" width="335" height="90" viewBox="0 0 335 90"><defs><style> .cls-1 { fill: #f44c28; } .cls-2 { fill: #ffffff; } </style></defs><path id="icon" class="cls-1" d="M21.215,64.945c1.362-1.012,2.972-2.2,2.972-2.2a9.187,9.187,0,0,1,2.518-1.315,10.824,10.824,0,0,1,3.364-.657,11.476,11.476,0,0,1,3.378.318,10.913,10.913,0,0,1,3.135,1.265,11.709,11.709,0,0,1,4.569,4.913,12.477,12.477,0,0,1,.937,2.666,6.275,6.275,0,0,0-1.436.178A5.755,5.755,0,0,0,37.382,72.3a7.037,7.037,0,0,1,3.4-1.542,6.411,6.411,0,0,1,1.447-.046h0.009a3.252,3.252,0,0,1,.386.044,5.682,5.682,0,0,1,1.712.484,6.282,6.282,0,0,1,2.7,2.294c0.01,0.017.019,0.025,0.029,0.04,0.069,0.1.137,0.218,0.2,0.331a6.894,6.894,0,0,1,.916,3.234,5.677,5.677,0,0,0-.487-3.778,8.9,8.9,0,0,1,9.538-2.7,8.923,8.923,0,0,1,5.311,4.767,8.74,8.74,0,0,1,.656,2.144c0.047,0.258.087,0.528,0.108,0.789a9.3,9.3,0,0,1-.666,4.393,8.624,8.624,0,0,0,1.115-3.692c0.011-.273.023-0.546,0.008-0.815a9.68,9.68,0,0,1,2.038-.189,9.11,9.11,0,0,1,3.557.745,5.626,5.626,0,0,0-1.032,2.558,6.168,6.168,0,0,1,1.447-2.372,3.138,3.138,0,0,1,.495-0.475,5.915,5.915,0,0,1,9.38,2.3,6.093,6.093,0,0,1,.4,1.657,2.049,2.049,0,0,0,.041-0.345,6.236,6.236,0,0,0-2.51-4.921,6.078,6.078,0,0,0-.978-0.516,1.415,1.415,0,0,0-.157-0.055,0.164,0.164,0,0,1,.05-0.318h0.025A43.086,43.086,0,0,0,94.379,72.04c-0.715.986-1.483,1.943-2.28,2.858a43.92,43.92,0,0,1-7.263,6.655,42.762,42.762,0,0,1-4.656,2.953l-0.419.206a0.5,0.5,0,0,1-.071.061c-1.014.542-2.05,1.031-3.1,1.492l-0.252.124-0.023-.011a44.9,44.9,0,0,1-7.62,2.539,44.177,44.177,0,0,1-17.135.539,45.338,45.338,0,0,1-15.607-5.623A44.479,44.479,0,0,1,21.9,70.751a0.879,0.879,0,0,1-.115-0.16c-0.491-.7-0.9-1.333-1.227-1.882a0.1,0.1,0,0,1-.021-0.041c-0.041-.067-0.082-0.131-0.12-0.194h0A2.763,2.763,0,0,1,21.215,64.945ZM7.166,41.067a51.5,51.5,0,0,1,6.874,1.595,5.341,5.341,0,0,1,.547.182c0.614,0.183,1.275.388,1.934,0.593,0.364,0.114.706,0.25,1.07,0.365a30.288,30.288,0,0,0,6.327.843,23.78,23.78,0,0,0,7.785-.887c6.783-2.028,10.9-6.538,19.619-1.617L36.137,52.028l-2.913-1.064L35.557,52.4l-0.009.005c0.113,0.068.25,0.147,0.374,0.219L36,52.677h0c2.043,1.2,5.375,2.946,5.4,2.967a13.326,13.326,0,0,0,10.083.456c5.485-2,7.329.25,7.329,0.25l-6.4,4.236H52.46l-1.32.866,2.14-.82a43.674,43.674,0,0,0,17.367.547,0.121,0.121,0,0,0,.091,0c0.637-.115,1.229-0.251,1.821-0.387l0.273-.069a24.3,24.3,0,0,0,9.082-4.35c0.068-.046.114-0.091,0.182-0.137,5.576-4.145,10.7-11.639,8.695-24.916a37.71,37.71,0,0,1-3.346,11.138,31.342,31.342,0,0,0-1.889-8.474,37.616,37.616,0,0,0-6.077-10.113,38.159,38.159,0,0,0-9.1-7.811,36.8,36.8,0,0,0-40.492,1.276A36.36,36.36,0,0,0,19.5,28.563a37.04,37.04,0,0,0-3.733,8.587l-1.024-.159a44.184,44.184,0,0,1,2.868-9.384A44.879,44.879,0,0,1,26.9,13.851a43.7,43.7,0,0,1,14.157-9.7A45.253,45.253,0,0,1,58.446.549a44.229,44.229,0,0,1,27.837,9.84,0.725,0.725,0,0,0,.2.159c0,0.023.046,0.045,0.046,0.067C103.717,25.238,103.467,45.942,98,55.165c-5.3,8.928-19.119,10.819-21.668,11.069a2.492,2.492,0,0,1-.409.046c-12.814,1.093-25.014-2.962-32.548-6.241H43.356c-4.848-1.754-11.745-4.237-18.368-6.605-3.778-1.367-7.465-2.687-10.629-3.8l-0.2-.069C11.764,48.7,9.693,47.969,8.1,47.4c-1.775-.637-2.913-1.025-3.073-1.069C0.02,44.94-2.325,39.7,7.166,41.067Z" transform="translate(-0.500 -0.300)"></path><path id="a3trip" class="cls-2" d="M138.927,24.727L116.392,74.565h12.07l4.715-10.932h20.618l4.68,10.932h11.942L147.882,24.727h-8.955Zm10.684,29.132H137.393l6.132-14.219Zm86.268-26.372-10.486,3.524v7.728h-6.35V47.2h6.35V61.233c0,4.22,1.133,7.529,3.368,9.836s5.419,3.493,9.435,3.493a22.811,22.811,0,0,0,2.863-.173,13.974,13.974,0,0,0,2.819-.677l0.772-.27v-8.8l-1.45.387c-0.614.164-1.173,0.288-1.66,0.369a8.779,8.779,0,0,1-1.446.115,5.661,5.661,0,0,1-2.259-.429,2.9,2.9,0,0,1-1.385-1.31,6.1,6.1,0,0,1-.571-2.935V47.2h8.771V38.739h-8.771V27.487ZM273.392,38.1h0a13.317,13.317,0,0,0-2.006-.144,12.345,12.345,0,0,0-7.493,2.452,10.138,10.138,0,0,0-1.781,1.687l-0.361-3.353H251.663l0.188,1.315a45.584,45.584,0,0,1,.415,4.565c0.064,1.563.1,3.122,0.1,4.633V74.1h10.486V55.079a9.216,9.216,0,0,1,.838-3.99,6.371,6.371,0,0,1,2.389-2.695,7.808,7.808,0,0,1,4.2-1,9.977,9.977,0,0,1,3.875.761l1.567,0.657,0.175-9.96-0.741-.294A8.139,8.139,0,0,0,273.392,38.1ZM282.476,74.1h10.486V38.739H282.476V74.1Zm-0.393-40h11.4V23.748h-11.4V34.1Zm51.279,12.712h0a16.236,16.236,0,0,0-5.6-6.544,14.669,14.669,0,0,0-8.262-2.385,13.922,13.922,0,0,0-7.907,2.257,11.2,11.2,0,0,0-2.329,2.072l-0.383-3.479H298.794l0.187,1.315a45.584,45.584,0,0,1,.415,4.565c0.064,1.563.1,3.122,0.1,4.633V88.244H309.98V71.1a11.115,11.115,0,0,0,1.623,1.281,14.234,14.234,0,0,0,7.894,2.183,15.257,15.257,0,0,0,8.272-2.24,15.435,15.435,0,0,0,5.589-6.355,21.27,21.27,0,0,0,2.018-9.513A21.873,21.873,0,0,0,333.362,46.817Zm-8.6,9.637c0,3.12-.664,5.532-1.973,7.168a7.422,7.422,0,0,1-10.857-.021c-1.293-1.66-1.949-4.108-1.949-7.278,0-3.253.654-5.733,1.945-7.371a6.5,6.5,0,0,1,5.477-2.343,6.337,6.337,0,0,1,5.372,2.432C324.091,50.747,324.759,53.241,324.759,56.454Z" transform="translate(-0.500 -0.300)"></path><path id="_3" data-name="3" class="cls-1" d="M216.81,13.382a11.841,11.841,0,0,0-3.147-4.31,12.954,12.954,0,0,0-4.56-2.5,17.349,17.349,0,0,0-5.178-.8,24.719,24.719,0,0,0-9.9,1.77,21.468,21.468,0,0,0-6.554,4.286,16.7,16.7,0,0,0-3.719,5.341,14.763,14.763,0,0,0-1.272,4.893,9.118,9.118,0,0,0,.439,3.549,6.382,6.382,0,0,0,1.436,2.353,5.376,5.376,0,0,0,2.053,1.293,7.016,7.016,0,0,0,2.3.39,7.49,7.49,0,0,0,1.932-.284,11.318,11.318,0,0,0,2.056-.711,14.328,14.328,0,0,0,2.511-1.459l1.168-.83h-1.436a2.119,2.119,0,0,1-1.634-.584,3.688,3.688,0,0,1-.866-1.484,6.433,6.433,0,0,1-.339-2.2,9.15,9.15,0,0,1,1.177-4.256,11.664,11.664,0,0,1,2.778-3.288,13.622,13.622,0,0,1,3.59-2.116A9.581,9.581,0,0,1,203.1,11.7a6.091,6.091,0,0,1,4.657,1.675,5.616,5.616,0,0,1,1.39,4.411,20.32,20.32,0,0,1-2.195,8.691,28.591,28.591,0,0,1-5.05,6.951,34.959,34.959,0,0,1-6.558,5.216,56.1,56.1,0,0,1-6.635,3.524l-0.4.177,2.361,6.081,0.457-.241a23.61,23.61,0,0,1,2.876-1.3,13.837,13.837,0,0,1,2.413-.666,11.445,11.445,0,0,1,2.377-.263,4.39,4.39,0,0,1,3.928,1.8,7.981,7.981,0,0,1,1.2,4.831,23.554,23.554,0,0,1-1.08,6.167,25.37,25.37,0,0,1-2.655,5.907,16.957,16.957,0,0,1-3.835,4.393,7.089,7.089,0,0,1-4.434,1.677,6.675,6.675,0,0,1-4.461-1.252,6.415,6.415,0,0,1-1.972-2.935,8.572,8.572,0,0,1-.349-3.419,13.019,13.019,0,0,1,.437-2.543l0.2-.6h-0.638c-0.743,0-1.681.046-2.788,0.139a19.164,19.164,0,0,0-3.287.56,8.662,8.662,0,0,0-2.855,1.3,3.091,3.091,0,0,0-1.336,2.649,15.993,15.993,0,0,0,.563,3.755,11.186,11.186,0,0,0,2.29,4.37,13.78,13.78,0,0,0,4.738,3.539,18.638,18.638,0,0,0,7.99,1.458,16.878,16.878,0,0,0,8.9-2.436,25.5,25.5,0,0,0,6.813-6.031,29.371,29.371,0,0,0,4.421-7.821,24.356,24.356,0,0,0,1.679-7.848,13.367,13.367,0,0,0-1.006-5.992,10.157,10.157,0,0,0-2.787-3.671,9.93,9.93,0,0,0-3.747-1.863,17.626,17.626,0,0,0-2.206-.419,35.531,35.531,0,0,0,5.52-4.132,36.057,36.057,0,0,0,5.151-5.815,29.049,29.049,0,0,0,3.352-6.2,18.554,18.554,0,0,0,1.313-5.983A14.373,14.373,0,0,0,216.81,13.382Z" transform="translate(-0.500 -0.300)"></path></svg> 